<svg width="295" height="57" viewBox="0 0 295 57" fill="none" xmlns="http://www.w3.org/2000/svg">
<path d="M0 0V40.639C4.295 35.386 8 33.2 9.553 32.51C9.697 32.444 9.704 32.345 9.697 32.303C9.684 32.228 9.612 32.155 9.425 32.156C8.66 32.166 7.081 32.594 6.046 32.975C5.803 33.064 5.767 32.905 5.866 32.723C6.086 32.308 7.097 31.354 10.117 30.137C15.107 28.123 20.263 28.342 22.624 29.528C23.669 30.054 24.108 31.099 24.239 31.477C24.254 31.524 24.232 31.551 24.195 31.551C20.533 31.509 18.882 31.696 17.785 32.03C17.46 32.13 17.429 32.374 17.718 32.589C18.235 32.982 19.84 33.394 20.481 33.501C20.672 33.533 20.778 33.471 20.896 33.334C21.035 33.179 21.207 32.952 21.362 32.803C21.481 32.687 21.542 32.674 21.769 32.658C22.108 32.634 22.892 32.622 23.578 32.634C26.787 32.691 30.371 33.486 30.371 38.031C30.371 39.664 29.702 41.261 29.384 41.749C29.178 42.069 28.851 42.055 28.868 41.576C28.953 39.345 28.594 38.429 25.064 38.429C23.277 38.429 20.458 38.687 19.193 39.281C18.722 39.501 18.679 39.906 19.151 39.864C19.854 39.802 22.613 39.614 24.564 39.614C25.856 39.614 26.872 39.742 27.24 40.256C27.33 40.383 27.346 40.614 27.037 40.568C26.913 40.551 26.584 40.514 26.13 40.514C22.065 40.514 18.091 42.913 18.091 47.06C18.091 53.656 27.798 56.294 39.935 56.294C49.712 56.294 56.294 54.196 56.294 54.196V0H0Z" fill="#666666"/>
<path d="M294.627 12.548V6.52302C294.627 4.16802 293.363 2.90402 291.363 2.90402C290.383 2.90402 289.461 3.23002 288.758 3.84202L288.398 3.03002L286.651 3.13902V12.549H289.086V5.77302C289.413 5.32202 290.071 5.05402 290.676 5.05402C291.677 5.05402 292.208 5.47402 292.208 6.52302V12.548H294.627ZM284.26 1.04402C284.26 0.356023 283.841 -0.000976562 282.89 -0.000976562C281.953 -0.000976562 281.499 0.372024 281.499 1.04402C281.499 1.81202 281.953 2.07302 282.89 2.07302C283.841 2.07402 284.26 1.72802 284.26 1.04402ZM284.119 12.548V3.08902L281.64 3.19602V12.548H284.119ZM278.918 12.548V0.279023L276.475 0.392023V12.548H278.918ZM271.26 12.548V7.90502C271.26 6.36202 272.197 5.46002 273.46 5.46002C273.835 5.46002 274.191 5.52202 274.489 5.61202L274.644 3.22902C274.396 3.15102 274.035 3.08802 273.61 3.08802C272.537 3.08802 271.615 3.65002 271.025 4.79102H270.976L270.756 3.21502L268.819 3.30702V12.547L271.26 12.548ZM261.391 6.85102C261.498 5.48002 261.952 4.93302 263.127 4.93302C264.137 4.93302 264.762 5.46002 264.796 6.85102H261.391ZM263.654 12.718C264.859 12.718 265.952 12.47 266.742 12.114L266.478 10.163C265.668 10.474 264.844 10.63 263.951 10.63C262.327 10.63 261.561 10.036 261.434 8.45802H266.947C266.996 8.13002 267.01 7.67902 267.01 7.31702C267.01 4.32302 265.527 2.91702 263.112 2.91702C260.268 2.91702 258.941 4.68102 258.941 7.69402C258.941 11.007 260.391 12.718 263.654 12.718ZM254.478 4.30802C254.478 5.22802 254.074 5.60102 253.137 5.60102H250.947V3.06002H253.074C254.059 3.06002 254.478 3.38602 254.478 4.30802ZM254.775 8.94302C254.775 10.05 254.307 10.396 253.258 10.396H250.931V7.55202H253.195C254.337 7.55202 254.775 7.95802 254.775 8.94302ZM257.41 9.14802C257.41 7.66002 256.722 6.74402 255.43 6.38202V6.35302C256.367 5.96202 256.991 5.15202 256.991 3.83702C256.991 1.98202 255.708 0.843023 253.167 0.843023H248.405V12.548H253.23C256.181 12.548 257.41 11.253 257.41 9.14802ZM241.643 3.08902H239.229V9.16302C239.229 10.134 238.726 10.581 237.663 10.581C236.604 10.581 236.102 10.099 236.102 9.16302V3.08902H233.687V9.21202C233.687 11.458 234.98 12.718 237.663 12.718C240.351 12.718 241.643 11.503 241.643 9.21202V3.08902ZM231.765 4.77502V3.08902H224.959L224.876 5.10102H228.954L228.969 5.13202L228.218 6.11802L224.754 10.848V12.547H231.843L231.906 10.535H227.564L227.549 10.488L228.295 9.52102L231.765 4.77502ZM218.446 12.548V6.52302C218.446 4.16802 217.182 2.90402 215.182 2.90402C214.202 2.90402 213.28 3.23002 212.578 3.84202L212.222 3.03002L210.471 3.13902V12.549H212.905V5.77302C213.232 5.32202 213.891 5.05402 214.496 5.05402C215.501 5.05402 216.028 5.47402 216.028 6.52302V12.548H218.446ZM203.036 6.85102C203.148 5.48002 203.601 4.93302 204.772 4.93302C205.787 4.93302 206.412 5.46002 206.445 6.85102H203.036ZM205.305 12.718C206.509 12.718 207.597 12.47 208.393 12.114L208.129 10.163C207.315 10.474 206.489 10.63 205.602 10.63C203.978 10.63 203.212 10.036 203.085 8.45802H208.598C208.641 8.13002 208.656 7.67902 208.656 7.31702C208.656 4.32302 207.178 2.91702 204.759 2.91702C201.92 2.91702 200.593 4.68102 200.593 7.69402C200.592 11.007 202.041 12.718 205.305 12.718ZM193.577 6.85102C193.688 5.48002 194.142 4.93302 195.313 4.93302C196.328 4.93302 196.952 5.46002 196.981 6.85102H193.577ZM195.845 12.718C197.045 12.718 198.138 12.47 198.934 12.114L198.67 10.163C197.86 10.474 197.03 10.63 196.138 10.63C194.514 10.63 193.752 10.036 193.625 8.45802H199.138C199.182 8.13002 199.197 7.67902 199.197 7.31702C199.197 4.32302 197.719 2.91702 195.3 2.91702C192.456 2.91702 191.129 4.68102 191.129 7.69402C191.128 11.007 192.582 12.718 195.845 12.718ZM189.771 9.61702C189.771 6.44102 185.444 7.27502 185.444 5.88102C185.444 5.40602 185.883 5.10202 186.678 5.10202C187.38 5.10202 188.429 5.25602 189.205 5.57302L189.409 3.60802C188.614 3.28002 187.678 3.09002 186.726 3.09002C184.291 3.09002 183.135 4.30902 183.135 5.98302C183.135 9.20802 187.521 8.35402 187.521 9.83302C187.521 10.378 187.117 10.759 186.146 10.759C185.335 10.759 184.228 10.542 183.448 10.103L183.2 12.08C183.996 12.518 185.025 12.738 186.162 12.738C188.728 12.738 189.771 11.472 189.771 9.61702ZM181.327 3.08902H178.907V9.16302C178.907 10.134 178.41 10.581 177.342 10.581C176.283 10.581 175.78 10.099 175.78 9.16302V3.08902H173.366V9.21202C173.366 11.458 174.658 12.718 177.342 12.718C180.03 12.718 181.327 11.503 181.327 9.21202V3.08902ZM158.892 0.843023V12.548H161.219V6.60102L161.204 5.33702L161.233 5.32102L161.671 6.50902L164.062 12.548H165.809L168.213 6.49302L168.652 5.30502L168.696 5.32102L168.667 6.58702V12.548H171.067V0.843023H168.164L165.433 7.67902L164.998 8.85102H164.949L164.511 7.67902L161.793 0.843023H158.892ZM146.857 6.85102C146.968 5.48002 147.418 4.93302 148.588 4.93302C149.603 4.93302 150.232 5.46002 150.261 6.85102H146.857ZM149.121 12.718C150.325 12.718 151.413 12.47 152.213 12.114L151.945 10.163C151.134 10.474 150.31 10.63 149.418 10.63C147.793 10.63 147.027 10.036 146.906 8.45802H152.413C152.462 8.13002 152.476 7.67902 152.476 7.31702C152.476 4.32302 150.994 2.91702 148.574 2.91702C145.734 2.91702 144.408 4.68102 144.408 7.69402C144.408 11.007 145.857 12.718 149.121 12.718ZM142.672 12.548V6.52302C142.672 4.24602 141.5 2.90402 139.506 2.90402C138.71 2.90402 137.852 3.12102 137.145 3.71502L137.1 3.68502L137.129 2.43502V0.279023L134.715 0.406023V12.549H137.129V5.77302C137.428 5.36702 138.037 5.05402 138.739 5.05402C139.768 5.05402 140.256 5.55802 140.256 6.52302V12.548H142.672ZM132.807 3.49402C132.212 3.26502 131.325 3.09002 130.53 3.09002C127.501 3.09002 126.208 4.85602 126.208 7.91402C126.208 11.146 127.687 12.738 130.481 12.738C131.496 12.738 132.339 12.533 132.901 12.189L132.729 10.312C132.232 10.541 131.637 10.66 131.012 10.66C129.543 10.66 128.715 9.88702 128.715 7.91402C128.715 5.97302 129.295 5.26002 131.061 5.26002C131.608 5.26002 132.183 5.37702 132.666 5.54702L132.807 3.49402ZM124.236 1.04402C124.236 0.356023 123.816 -0.000976562 122.865 -0.000976562C121.928 -0.000976562 121.474 0.372024 121.474 1.04402C121.474 1.81202 121.928 2.07302 122.865 2.07302C123.816 2.07402 124.236 1.72802 124.236 1.04402ZM124.095 12.548V3.08902L121.616 3.19602V12.548H124.095ZM118.898 12.548V0.279023L116.45 0.392023V12.548H118.898ZM114.621 4.90002V3.08902H112.514V0.843023L110.612 1.01102L110.207 3.08902H109.036V4.90002H110.095V9.68702C110.095 11.458 111.017 12.548 112.906 12.548C113.578 12.548 114.203 12.427 114.53 12.282L114.388 10.522C114.217 10.581 113.89 10.629 113.636 10.629C112.89 10.629 112.515 10.324 112.515 9.60902V4.90002H114.621ZM105.098 9.67702C105.098 10.163 104.352 10.63 103.523 10.63C102.723 10.63 102.181 10.321 102.181 9.46002C102.181 8.68502 102.679 8.28402 103.757 8.28402C104.401 8.28402 104.864 8.38602 105.098 8.47902V9.67702ZM105.649 12.548H107.503V6.69802C107.503 4.10202 106.536 2.90302 103.741 2.90302C102.521 2.90302 101.443 3.12002 100.492 3.52802L100.697 5.46002C101.57 5.10102 102.258 4.94802 103.302 4.94802C104.599 4.94802 105.096 5.38202 105.096 6.33702V6.88402C104.599 6.72802 103.989 6.61602 103.286 6.61602C101.13 6.61602 99.915 7.81702 99.915 9.56702C99.915 11.532 101.051 12.547 102.852 12.547C103.925 12.547 104.832 12.156 105.408 11.471L105.457 11.489L105.649 12.548ZM95.717 9.67702C95.717 10.163 94.97 10.63 94.141 10.63C93.341 10.63 92.794 10.321 92.794 9.46002C92.794 8.68502 93.296 8.28402 94.375 8.28402C95.014 8.28402 95.482 8.38602 95.717 8.47902V9.67702ZM96.264 12.548H98.122V6.69802C98.122 4.10202 97.151 2.90302 94.361 2.90302C93.142 2.90302 92.064 3.12002 91.112 3.52802L91.317 5.46002C92.19 5.10102 92.878 4.94802 93.922 4.94802C95.22 4.94802 95.717 5.38202 95.717 6.33702V6.88402C95.219 6.72802 94.61 6.61602 93.907 6.61602C91.751 6.61602 90.536 7.81702 90.536 9.56702C90.536 11.532 91.672 12.547 93.468 12.547C94.546 12.547 95.453 12.156 96.029 11.471L96.078 11.489L96.264 12.548ZM89.351 4.90002V3.08902H87.244V0.843023L85.336 1.01102L84.931 3.08902H83.76V4.90002H84.823V9.68702C84.823 11.458 85.745 12.548 87.628 12.548C88.301 12.548 88.926 12.427 89.253 12.282L89.116 10.522C88.941 10.581 88.614 10.629 88.365 10.629C87.614 10.629 87.243 10.324 87.243 9.60902V4.90002H89.351ZM82.858 9.03702C82.858 5.07002 77.472 5.91402 77.472 4.08802C77.472 3.46302 77.862 2.96302 79.316 2.96302C80.204 2.96302 81.174 3.15102 82.14 3.46302L82.467 1.24802C81.564 0.875024 80.33 0.641023 79.189 0.641023C76.223 0.641023 74.945 2.24602 74.945 4.22702C74.945 8.14902 80.331 7.36802 80.331 9.21302C80.331 10.022 79.77 10.49 78.487 10.49C77.331 10.49 76.272 10.178 75.243 9.63102L74.897 11.893C75.912 12.442 77.161 12.768 78.522 12.768C81.253 12.767 82.858 11.349 82.858 9.03702Z" fill="#666666"/>
<path d="M246.771 26.3491L245.346 26.4211V35.2761H246.771V26.3491ZM122.139 26.3491L120.719 26.4211V35.2761H122.139V26.3491ZM81.6089 27.5621C81.6089 29.2871 80.8429 29.7791 79.2529 29.7791H77.0479V25.3711H79.2529C80.8869 25.3711 81.6089 25.9251 81.6089 27.5621ZM83.1799 27.5621C83.1799 25.1211 82.0139 24.0391 79.2529 24.0391H75.5259V35.2771H77.0479V31.0661H79.2529C82.0429 31.0661 83.1799 29.8691 83.1799 27.5621ZM90.2089 27.9061L90.2969 26.4671C90.0579 26.3931 89.7409 26.3501 89.4139 26.3501C88.1989 26.3501 87.2239 27.0961 86.6719 28.3751H86.6379L86.5209 26.4671L85.3839 26.5431V35.2771H86.8039V30.8321C86.8039 28.9491 87.9299 27.7831 89.3209 27.7831C89.6389 27.7831 89.9369 27.8121 90.2089 27.9061ZM97.5219 30.0331H93.0389C93.1269 28.3651 93.7999 27.5741 95.3169 27.5741C96.6049 27.5741 97.4929 28.2511 97.5219 30.0331ZM98.7909 31.0051C98.8059 30.8121 98.8199 30.5441 98.8199 30.3191C98.8199 27.6021 97.4299 26.3481 95.3029 26.3481C92.8439 26.3481 91.6149 27.8991 91.6149 30.5731C91.6149 33.9151 92.8299 35.4561 95.7669 35.4561C96.8449 35.4561 97.7769 35.2021 98.5229 34.7981L98.3569 33.6011C97.5959 33.9741 96.8299 34.1691 95.9319 34.1691C94.0099 34.1691 93.1419 33.3581 93.0689 31.0051H98.7909ZM107.889 32.3411V26.3491H106.485V32.3101C106.485 33.5251 105.777 34.1401 104.425 34.1401C103.05 34.1401 102.357 33.5111 102.357 32.3101V26.3491H100.953V32.3411C100.953 34.3061 102.074 35.4431 104.411 35.4431C106.767 35.4431 107.889 34.3201 107.889 32.3411ZM118.182 32.4391C118.182 30.0031 114.889 29.6031 114.889 28.8371C114.889 28.2181 116.84 27.4641 116.84 25.9741C116.84 24.7881 115.729 23.8471 114.123 23.8471C111.874 23.8471 110.635 25.1911 110.635 27.7011V37.5121H112.04V27.5671C112.04 25.8991 112.728 25.0731 114.094 25.0731C114.948 25.0731 115.49 25.4711 115.49 26.0181C115.49 27.2131 113.373 27.9201 113.373 29.0161C113.373 30.4051 116.749 30.6531 116.749 32.4871C116.749 33.4891 115.866 33.9751 114.616 33.9751C114.055 33.9751 113.518 33.8321 113.06 33.6291L112.967 34.9261C113.543 35.1641 114.25 35.2781 114.856 35.2781C116.855 35.2771 118.182 34.1991 118.182 32.4391ZM122.348 24.0851C122.348 23.5911 122.051 23.3191 121.436 23.3191C120.827 23.3191 120.524 23.5901 120.524 24.0851C120.524 24.6511 120.827 24.8471 121.436 24.8471C122.051 24.8471 122.348 24.6071 122.348 24.0851ZM126.261 28.7501C126.261 28.0271 126.939 27.5741 128.002 27.5741C128.719 27.5741 129.578 27.7341 130.324 28.0431L130.441 26.8571C129.724 26.5271 128.9 26.3491 128.031 26.3491C125.977 26.3491 124.914 27.3371 124.914 28.8201C124.914 31.7691 129.484 30.8411 129.484 32.8221C129.484 33.6481 128.948 34.2611 127.64 34.2611C126.786 34.2611 125.767 33.9951 125.094 33.4971L124.913 34.7101C125.601 35.2021 126.591 35.4561 127.655 35.4561C129.86 35.4561 130.801 34.3351 130.801 32.6901C130.803 29.6421 126.261 30.6071 126.261 28.7501ZM133.963 30.8221C133.963 28.5581 134.686 27.6501 136.617 27.6501C137.262 27.6501 137.905 27.8121 138.431 28.0461L138.519 26.7821C137.934 26.5261 137.124 26.3481 136.333 26.3481C133.665 26.3481 132.499 27.8691 132.499 30.8211C132.499 34.0361 133.782 35.4711 136.284 35.4711C137.231 35.4711 138.069 35.2171 138.596 34.8581L138.489 33.7001C137.948 34.0241 137.29 34.1981 136.587 34.1981C134.881 34.1991 133.963 33.2911 133.963 30.8221ZM146.389 35.2771H147.799V29.3571C147.799 27.3201 146.735 26.1831 144.783 26.1831C143.842 26.1831 142.925 26.4951 142.281 27.1711L142.252 27.1551L142.267 25.9581V23.3621L140.862 23.4561V35.2761H142.267V28.5161C142.627 27.9481 143.438 27.4981 144.365 27.4981C145.745 27.4981 146.389 28.1581 146.389 29.3551V35.2771ZM155.843 30.0331H151.364C151.452 28.3651 152.131 27.5741 153.642 27.5741C154.931 27.5741 155.813 28.2511 155.843 30.0331ZM157.121 31.0051C157.136 30.8121 157.15 30.5441 157.15 30.3191C157.15 27.6021 155.754 26.3481 153.628 26.3481C151.169 26.3481 149.94 27.8991 149.94 30.5731C149.94 33.9151 151.155 35.4561 154.092 35.4561C155.17 35.4561 156.102 35.2021 156.848 34.7981L156.682 33.6011C155.921 33.9741 155.156 34.1691 154.258 34.1691C152.34 34.1691 151.467 33.3581 151.394 31.0051H157.121ZM164.238 27.9061L164.326 26.4671C164.087 26.3931 163.77 26.3501 163.443 26.3501C162.228 26.3501 161.253 27.0961 160.701 28.3751H160.672L160.551 26.4671L159.414 26.5431V35.2771H160.833V30.8321C160.833 28.9491 161.96 27.7831 163.351 27.7831C163.668 27.7831 163.965 27.8121 164.238 27.9061ZM180.078 35.2771L175.971 29.3591L179.854 24.0391H178.025L174.576 28.7891H172.913V24.0391H171.386V35.2771H172.913V30.0911H174.547L178.162 35.2771H180.078ZM188.63 32.3411V26.3491H187.226V32.3101C187.226 33.5251 186.518 34.1401 185.171 34.1401C183.791 34.1401 183.098 33.5111 183.098 32.3101V26.3491H181.694V32.3411C181.694 34.3061 182.816 35.4431 185.157 35.4431C187.508 35.4431 188.63 34.3201 188.63 32.3411ZM191.571 35.2771H192.991V23.3631L191.571 23.4571V35.2771ZM197.981 27.4551H200.181V26.3501H197.981V24.0391L196.875 24.1601L196.606 26.3491H195.318V27.4541H196.562V32.8641C196.562 34.4251 197.352 35.2761 198.879 35.2761C199.357 35.2761 199.855 35.1861 200.122 35.0531L200.034 33.9771C199.854 34.0511 199.537 34.0941 199.283 34.0941C198.473 34.0941 197.98 33.7271 197.98 32.8211V27.4551H197.981ZM209.007 32.3411V26.3491H207.602V32.3101C207.602 33.5251 206.9 34.1401 205.548 34.1401C204.168 34.1401 203.48 33.5111 203.48 32.3101V26.3491H202.071V32.3411C202.071 34.3061 203.193 35.4431 205.534 35.4431C207.885 35.4431 209.007 34.3201 209.007 32.3411ZM216.485 27.9061L216.578 26.4671C216.339 26.3931 216.021 26.3501 215.69 26.3501C214.48 26.3501 213.504 27.0961 212.948 28.3751H212.919L212.803 26.4671L211.666 26.5431V35.2771H213.085V30.8321C213.085 28.9491 214.207 27.7831 215.603 27.7831C215.92 27.7831 216.217 27.8121 216.485 27.9061ZM224.656 30.8121C224.656 33.5851 223.724 34.2611 222.33 34.2611C221.237 34.2611 220.485 33.7491 220.13 33.1671V28.5341C220.593 27.8581 221.373 27.4681 222.316 27.4681C223.783 27.4681 224.656 28.0971 224.656 30.8121ZM226.091 30.7831V30.7811C226.091 27.3941 224.779 26.1831 222.691 26.1831C221.701 26.1831 220.789 26.5131 220.145 27.1891L220.116 27.1711L220.131 25.9741V23.3491L218.721 23.4411V35.2771H219.667L219.892 34.3471L219.936 34.3331C220.487 35.0221 221.418 35.4421 222.526 35.4421C224.793 35.4431 226.091 34.1401 226.091 30.7831ZM233.77 30.0331H229.287C229.375 28.3651 230.048 27.5741 231.565 27.5741C232.853 27.5741 233.74 28.2511 233.77 30.0331ZM235.038 31.0051C235.053 30.8121 235.072 30.5441 235.072 30.3191C235.072 27.6021 233.676 26.3481 231.55 26.3481C229.091 26.3481 227.862 27.8991 227.862 30.5731C227.862 33.9151 229.077 35.4561 232.014 35.4561C233.092 35.4561 234.019 35.2021 234.77 34.7981L234.604 33.6011C233.843 33.9741 233.077 34.1691 232.179 34.1691C230.257 34.1691 229.389 33.3581 229.316 31.0051H235.038ZM238.229 28.7501C238.229 28.0271 238.902 27.5741 239.97 27.5741C240.687 27.5741 241.541 27.7341 242.292 28.0431L242.409 26.8571C241.691 26.5271 240.867 26.3491 239.999 26.3491C237.945 26.3491 236.882 27.3371 236.882 28.8201C236.882 31.7691 241.453 30.8411 241.453 32.8221C241.453 33.6481 240.911 34.2611 239.608 34.2611C238.754 34.2611 237.735 33.9951 237.062 33.4971L236.881 34.7101C237.569 35.2021 238.559 35.4561 239.622 35.4561C241.822 35.4561 242.768 34.3351 242.768 32.6901C242.77 29.6421 238.229 30.6071 238.229 28.7501ZM246.979 24.0851C246.979 23.5911 246.682 23.3191 246.067 23.3191C245.453 23.3191 245.15 23.5901 245.15 24.0851C245.15 24.6511 245.453 24.8471 246.067 24.8471C246.683 24.8471 246.979 24.6071 246.979 24.0851ZM251.868 27.4551H254.068V26.3501H251.868V24.0391L250.756 24.1601L250.487 26.3491H249.199V27.4541H250.443V32.8641C250.443 34.4251 251.238 35.2761 252.765 35.2761C253.244 35.2761 253.741 35.1861 254.009 35.0531L253.921 33.9771C253.74 34.0511 253.423 34.0941 253.17 34.0941C252.359 34.0941 251.867 33.7271 251.867 32.8211L251.868 27.4551ZM258.132 33.0621L262.088 27.3781V26.3491H255.99L255.941 27.5741H260.439L260.454 27.6031L259.752 28.5641L255.78 34.2611V35.2771H262.132L262.176 34.0521H257.445L257.425 34.0051L258.132 33.0621Z" fill="#666666"/>
</svg>
